<?xml version="1.0" encoding="UTF-8"?>
<!DOCTYPE svg PUBLIC "-//W3C//DTD SVG 1.1//EN" "http://www.w3.org/Graphics/SVG/1.1/DTD/svg11.dtd">
<!-- Creator: CorelDRAW X8 -->
<svg xmlns="http://www.w3.org/2000/svg" xml:space="preserve" width="300px" height="300px" version="1.1" style="shape-rendering:geometricPrecision; text-rendering:geometricPrecision; image-rendering:optimizeQuality; fill-rule:evenodd; clip-rule:evenodd"
viewBox="0 0 300 300"
 xmlns:xlink="http://www.w3.org/1999/xlink">
 <defs>
  <style type="text/css">
   <![CDATA[
    .fil1 {fill:url(#id0);fill-rule:nonzero}
    .fil2 {fill:url(#id1);fill-rule:nonzero}
    .fil3 {fill:url(#id2);fill-rule:nonzero}
    .fil4 {fill:url(#id3);fill-rule:nonzero}
    .fil0 {fill:url(#id4);fill-rule:nonzero}
   ]]>
  </style>
  <linearGradient id="id0" gradientUnits="userSpaceOnUse" x1="176.817" y1="297.722" x2="123.183" y2="2.27718">
   <stop offset="0" style="stop-opacity:1; stop-color:#EFB338"/>
   <stop offset="0.0705882" style="stop-opacity:1; stop-color:#D7B56D"/>
   <stop offset="0.129412" style="stop-opacity:1; stop-color:#FFCB9E"/>
   <stop offset="0.180392" style="stop-opacity:1; stop-color:#CF9A00"/>
   <stop offset="0.380392" style="stop-opacity:1; stop-color:#E4A93A"/>
   <stop offset="0.439216" style="stop-opacity:1; stop-color:#FFF7B2"/>
   <stop offset="0.54902" style="stop-opacity:1; stop-color:#DB932B"/>
   <stop offset="0.701961" style="stop-opacity:1; stop-color:#ECB84D"/>
   <stop offset="0.760784" style="stop-opacity:1; stop-color:#FFFBDB"/>
   <stop offset="0.85098" style="stop-opacity:1; stop-color:#DC9B33"/>
   <stop offset="0.941176" style="stop-opacity:1; stop-color:#F4CE7C"/>
   <stop offset="1" style="stop-opacity:1; stop-color:#DC9B33"/>
  </linearGradient>
  <linearGradient id="id1" gradientUnits="userSpaceOnUse" x1="150.423" y1="249.622" x2="106.417" y2="7.21777">
   <stop offset="0" style="stop-opacity:1; stop-color:#AC2D2E"/>
   <stop offset="0.211765" style="stop-opacity:1; stop-color:#E31E24"/>
   <stop offset="0.529412" style="stop-opacity:1; stop-color:#AC2D2E"/>
   <stop offset="0.74902" style="stop-opacity:1; stop-color:#E31E24"/>
   <stop offset="1" style="stop-opacity:1; stop-color:#AC2D2E"/>
  </linearGradient>
  <linearGradient id="id2" gradientUnits="userSpaceOnUse" x1="193.747" y1="292.781" x2="149.816" y2="50.7831">
   <stop offset="0" style="stop-opacity:1; stop-color:#1C4D68"/>
   <stop offset="0.219608" style="stop-opacity:1; stop-color:#0C54A0"/>
   <stop offset="0.501961" style="stop-opacity:1; stop-color:#1C4D68"/>
   <stop offset="0.768627" style="stop-opacity:1; stop-color:#0C54A0"/>
   <stop offset="1" style="stop-opacity:1; stop-color:#1C4D68"/>
  </linearGradient>
  <linearGradient id="id3" gradientUnits="userSpaceOnUse" x1="142.592" y1="263.552" x2="101.671" y2="9.30244">
   <stop offset="0" style="stop-opacity:1; stop-color:#D9DADA"/>
   <stop offset="0.25098" style="stop-opacity:1; stop-color:#FEFEFE"/>
   <stop offset="0.529412" style="stop-opacity:1; stop-color:#EBECEC"/>
   <stop offset="0.74902" style="stop-opacity:1; stop-color:#FEFEFE"/>
   <stop offset="1" style="stop-opacity:1; stop-color:#EBECEC"/>
  </linearGradient>
  <linearGradient id="id4" gradientUnits="userSpaceOnUse" xlink:href="#id0" x1="301.004" y1="122.559" x2="-1.00276" y2="177.441">
  </linearGradient>
 </defs>
 <g id="HQFL">
  <metadata id="CorelCorpID_0Corel-Layer"/>
  <g id="_2198775153680">
   <path class="fil0" d="M258 46l0 0 -2 -2c0,0 0,0 0,0l-1 -2 0 0c-29,-27 -66,-42 -105,-42 -83,0 -150,67 -150,150 0,39 15,76 42,105l0 0 2 1 2 2 0 0c28,27 65,42 104,42 83,0 150,-67 150,-150 0,-39 -15,-76 -42,-104z"/>
   <path class="fil1" d="M256 48l0 0 -2 -2c0,0 0,0 0,0l-2 -1 0 0c-27,-27 -63,-42 -102,-42 -81,0 -147,66 -147,147 0,39 15,75 42,102l0 0 1 2 2 2 0 0c28,26 64,41 102,41 81,0 147,-66 147,-147 0,-38 -15,-74 -41,-102z"/>
   <path class="fil2" d="M48 249c0,0 4,-4 10,-10l-18 0c3,4 5,7 8,10zm18 -18c12,-12 30,-30 49,-49l-49 0 0 49zm-5 -106l-51 0c-1,8 -2,16 -2,25 0,9 1,18 3,27l50 0 0 -52zm62 0l0 49c5,-5 10,-10 14,-14l35 -35 -49 0zm126 -77c-4,-3 -7,-6 -11,-9l0 20 11 -11zm-68 68l49 -49 -49 0 0 49zm-5 -53l0 -53c-9,-1 -17,-2 -26,-2 -9,0 -18,1 -27,3l0 52 53 0zm-57 4l-53 0 0 53 53 0 0 -53zm-58 -28c-8,7 -16,15 -23,24l23 0 0 -24z"/>
   <path class="fil3" d="M252 52l-56 56 31 0 1 0c0,0 0,135 0,139 2,0 9,0 9,0l0 15 -26 0c0,0 0,-5 0,-8 -8,8 -20,12 -31,12 -26,0 -47,-21 -47,-47 0,-26 21,-48 47,-48 10,0 20,4 29,10 0,-5 0,-53 0,-56l-30 0 -127 127c26,26 61,40 98,40 78,0 142,-64 142,-142 0,-37 -14,-72 -40,-98zm-72 194l0 0c-15,0 -27,-12 -27,-27 0,-15 12,-27 27,-27 15,0 27,12 27,27 0,15 -12,27 -27,27z"/>
   <path class="fil4" d="M209 188l4 4 0 -72c0,0 -30,0 -32,0 0,-2 0,-6 0,-7 2,0 30,0 30,0 0,0 10,0 13,0 0,3 0,138 0,138 0,0 6,0 8,0 0,2 0,4 0,6 -2,0 -14,0 -16,0 0,-2 0,-14 0,-14l-4 4c-8,9 -20,15 -32,15 -24,0 -43,-20 -43,-43 0,-24 19,-43 43,-43 11,0 21,4 29,12zm-60 31l0 0c0,17 14,31 31,31 17,0 31,-14 31,-31 0,-17 -14,-32 -31,-32 -17,0 -31,15 -31,32zm-88 -37c-3,0 -46,0 -49,0 2,12 7,23 12,34 1,1 2,3 3,5 0,0 0,0 0,1 2,2 3,3 4,5 0,0 0,0 0,0 2,3 3,5 5,8 2,0 23,0 25,0 0,-3 0,-50 0,-53zm5 -5c3,0 50,0 53,0 0,-3 0,-49 0,-52 -3,0 -50,0 -53,0 0,3 0,49 0,52zm-5 -57c0,-3 0,-50 0,-53 -2,0 -25,0 -26,0 -5,7 -9,14 -13,21 0,1 0,1 0,1 -1,2 -2,4 -3,5 0,2 -1,3 -1,4 -1,1 -1,2 -1,2 -1,2 -1,4 -2,6 0,0 0,0 0,0 -2,5 -3,9 -4,14 4,0 47,0 50,0zm62 0c3,0 50,0 53,0 0,-3 0,-50 0,-53 -3,0 -50,0 -53,0 0,3 0,50 0,53zm110 -57c0,-3 0,-26 0,-28 -9,-7 -19,-12 -29,-16 0,-1 -1,-1 -1,-1 -2,0 -3,-1 -5,-2 -1,0 -1,0 -2,0 -1,-1 -3,-1 -4,-2 -1,0 -2,0 -3,0 -1,-1 -2,-1 -3,-1 -1,-1 -2,-1 -4,-1 0,0 -1,-1 -1,-1 0,4 0,49 0,52 2,0 49,0 52,0zm-114 0c0,-3 0,-48 0,-51 -20,4 -38,12 -53,24 0,2 0,24 0,27 3,0 50,0 53,0z"/>
  </g>
 </g>
</svg>
