<svg xmlns="http://www.w3.org/2000/svg" data-name="Layer 5" viewBox="0 0 512 512" id="bill"><path fill="#1c2b36" d="M248 144a8 8 0 0 1-8 8h-96a8 8 0 0 1 0-16h96a8 8 0 0 1 8 8zm0 64a8 8 0 0 1-8 8h-96a8 8 0 0 1 0-16h96a8 8 0 0 1 8 8zm0 64a8 8 0 0 1-8 8h-96a8 8 0 0 1 0-16h96a8 8 0 0 1 8 8zm16 96a8 8 0 0 1-8 8h-48a8 8 0 0 1 0-16h48a8 8 0 0 1 8 8z"></path><path fill="#1c2b36" d="M352 296a104 104 0 1 0-56-191.6V64a7 7 0 0 0 0-.8v-.32c0-.11 0-.3-.07-.46s-.06-.24-.09-.37-.06-.26-.1-.39-.08-.23-.12-.35l-.14-.39-.15-.31c-.06-.13-.12-.27-.19-.4s-.11-.18-.16-.28l-.24-.39-.21-.28-.26-.35c-.11-.14-.24-.27-.36-.4l-.16-.18-.17-.15a5 5 0 0 0-.42-.37 3.81 3.81 0 0 0-.32-.24 3.55 3.55 0 0 0-.31-.23c-.11-.08-.24-.15-.36-.22a3.14 3.14 0 0 0-.31-.18l-.36-.18-.35-.16-.34-.13-.4-.14-.33-.08-.43-.11h-.37c-.13 0-.27-.05-.41-.06h-1.56c-.14 0-.28 0-.41.06h-.37l-.43.11-.33.08-.4.14-.34.13-.35.16-.36.18a3.14 3.14 0 0 0-.31.18c-.12.07-.25.14-.36.22a3.55 3.55 0 0 0-.31.23 3.81 3.81 0 0 0-.32.24 5 5 0 0 0-.42.37l-.17.15L272 68.69l-10.34-10.35a8 8 0 0 0-11.32 0L240 68.69l-10.34-10.35a8 8 0 0 0-11.32 0L208 68.69l-10.34-10.35a8 8 0 0 0-11.32 0L176 68.69l-10.34-10.35a8 8 0 0 0-11.32 0L144 68.69l-10.34-10.35a8 8 0 0 0-11.32 0L112 68.69l-10.34-10.35-.06-.05c-.17-.17-.35-.33-.53-.48l-.29-.21-.34-.25c-.11-.08-.23-.14-.34-.21l-.33-.2-.35-.16-.36-.17c-.11 0-.23-.08-.34-.12l-.4-.15-.32-.08-.43-.11h-.37c-.13 0-.27-.05-.41-.06h-1.56c-.14 0-.28 0-.41.06h-.37l-.43.11-.33.08-.4.15c-.11 0-.23.07-.34.12l-.36.17-.35.16-.33.2c-.11.07-.23.13-.34.21l-.34.25-.29.21c-.18.15-.36.31-.53.48l-.06.05c-.17.18-.33.35-.49.54l-.22.3a4 4 0 0 0-.24.33c-.08.11-.15.23-.22.35s-.13.21-.18.32-.12.24-.18.37a3.54 3.54 0 0 0-.16.34c0 .12-.09.24-.13.36a2.84 2.84 0 0 0-.13.38c0 .12-.07.24-.1.37s-.07.25-.09.39 0 .29-.07.43 0 .23 0 .34A7 7 0 0 0 88 64v288a40 40 0 0 0 40 40h24v24a40 40 0 0 0 40 40h1.08l.47-.07.23-.06.53-.13.16-.06a5.71 5.71 0 0 0 .58-.21l.11-.05a5.5 5.5 0 0 0 .6-.28.41.41 0 0 0 .11-.07 6.32 6.32 0 0 0 .56-.33l.2-.15a4.35 4.35 0 0 0 .43-.32 6 6 0 0 0 .6-.53L208 443.31l10.34 10.35a8 8 0 0 0 11.32 0L240 443.31l10.34 10.35a7.61 7.61 0 0 0 1.26 1 8.49 8.49 0 0 0 1.37.71h.06a8.13 8.13 0 0 0 2.97.63 8.05 8.05 0 0 0 5.66-2.34L272 443.31l10.34 10.35a8 8 0 0 0 11.32 0L304 443.31l10.34 10.35a8 8 0 0 0 11.32 0L336 443.31l10.34 10.35a6 6 0 0 0 .6.53c.15.13.31.24.48.36l.15.11a6 6 0 0 0 .6.36h.07l.63.3h.07c.21.09.42.16.63.23h.11l.6.15h.16l.58.08h.2a6.79 6.79 0 0 0 .78 0h32a8 8 0 0 0 0-16 24 24 0 0 1-24-24V352a40 40 0 0 0-40-40h-24v-32.4a103.35 103.35 0 0 0 56 16.4ZM104 83.31l2.34 2.35a8 8 0 0 0 11.32 0L128 75.31l10.34 10.35a8 8 0 0 0 11.32 0L160 75.31l10.34 10.35a8 8 0 0 0 11.32 0L192 75.31l10.34 10.35a8 8 0 0 0 11.32 0L224 75.31l10.34 10.35a8 8 0 0 0 11.32 0L256 75.31l10.34 10.35a8 8 0 0 0 11.32 0l2.34-2.35V117a103.82 103.82 0 0 0 0 150v45H128a39.81 39.81 0 0 0-24 8ZM152 376h-24a24 24 0 1 1 24-24Zm168-48a24 24 0 0 1 24 24v64a39.83 39.83 0 0 0 3.36 16.05l-5.7-5.71a8 8 0 0 0-11.32 0L320 436.69l-10.34-10.35a8 8 0 0 0-11.32 0L288 436.69l-10.34-10.35a8 8 0 0 0-11.32 0L256 436.69l-10.34-10.35a8 8 0 0 0-11.32 0L224 436.69l-10.34-10.35a8 8 0 0 0-11.32 0l-13.45 13.46A24 24 0 0 1 168 416v-64a39.81 39.81 0 0 0-8-24Zm-56-136a88 88 0 1 1 88 88 88.1 88.1 0 0 1-88-88Z"></path><path fill="#fee9a6" d="M352 104a88 88 0 1 0 88 88 88.1 88.1 0 0 0-88-88Zm-12.8 80h25.6a20.82 20.82 0 0 1 20.8 20.8v12.8a20.82 20.82 0 0 1-20.8 20.8H360V256a8 8 0 0 1-16 0v-17.6h-4.8a20.82 20.82 0 0 1-20.8-20.8 8 8 0 0 1 16 0 4.8 4.8 0 0 0 4.8 4.8h25.6a4.8 4.8 0 0 0 4.8-4.8v-12.8a4.8 4.8 0 0 0-4.8-4.8h-25.6a20.82 20.82 0 0 1-20.8-20.8v-12.8a20.82 20.82 0 0 1 20.8-20.8h4.8V128a8 8 0 0 1 16 0v17.6h4.8a20.82 20.82 0 0 1 20.8 20.8 8 8 0 0 1-16 0 4.8 4.8 0 0 0-4.8-4.8h-25.6a4.8 4.8 0 0 0-4.8 4.8v12.8a4.8 4.8 0 0 0 4.8 4.8Z"></path><path fill="#dfe6e9" d="M344 416v-64a24 24 0 0 0-24-24H160a39.81 39.81 0 0 1 8 24v64a24 24 0 0 0 20.89 23.8l13.45-13.46a8 8 0 0 1 11.32 0L224 436.69l10.34-10.35a8 8 0 0 1 11.32 0L256 436.69l10.34-10.35a8 8 0 0 1 11.32 0L288 436.69l10.34-10.35a8 8 0 0 1 11.32 0L320 436.69l10.34-10.35a8 8 0 0 1 11.32 0l5.7 5.71A39.83 39.83 0 0 1 344 416Zm-88-40h-48a8 8 0 0 1 0-16h48a8 8 0 0 1 0 16Zm48 0h-16a8 8 0 0 1 0-16h16a8 8 0 0 1 0 16Z"></path><path fill="#b2bec3" d="M152 352v24h-24a24 24 0 1 1 24-24Z"></path><path fill="#dfe6e9" d="M280 117V83.31l-2.34 2.35a8 8 0 0 1-11.32 0L256 75.31l-10.34 10.35a8 8 0 0 1-11.32 0L224 75.31l-10.34 10.35a8 8 0 0 1-11.32 0L192 75.31l-10.34 10.35a8 8 0 0 1-11.32 0L160 75.31l-10.34 10.35a8 8 0 0 1-11.32 0L128 75.31l-10.34 10.35a8 8 0 0 1-11.32 0L104 83.31V320a39.81 39.81 0 0 1 24-8h152v-45a103.82 103.82 0 0 1 0-150Zm-40 163h-96a8 8 0 0 1 0-16h96a8 8 0 0 1 0 16Zm0-64h-96a8 8 0 0 1 0-16h96a8 8 0 0 1 0 16Zm0-64h-96a8 8 0 0 1 0-16h96a8 8 0 0 1 0 16Z"></path><path fill="#1c2b36" d="M385.6 204.8v12.8a20.82 20.82 0 0 1-20.8 20.8H360V256a8 8 0 0 1-16 0v-17.6h-4.8a20.82 20.82 0 0 1-20.8-20.8 8 8 0 0 1 16 0 4.8 4.8 0 0 0 4.8 4.8h25.6a4.8 4.8 0 0 0 4.8-4.8v-12.8a4.8 4.8 0 0 0-4.8-4.8h-25.6a20.82 20.82 0 0 1-20.8-20.8v-12.8a20.82 20.82 0 0 1 20.8-20.8h4.8V128a8 8 0 0 1 16 0v17.6h4.8a20.82 20.82 0 0 1 20.8 20.8 8 8 0 0 1-16 0 4.8 4.8 0 0 0-4.8-4.8h-25.6a4.8 4.8 0 0 0-4.8 4.8v12.8a4.8 4.8 0 0 0 4.8 4.8h25.6a20.82 20.82 0 0 1 20.8 20.8zM312 368a8 8 0 0 1-8 8h-16a8 8 0 0 1 0-16h16a8 8 0 0 1 8 8z"></path></svg>